# xmcd
#
# Track frame offsets: 
#        150
#        23427
#        49683
#        70756
#        88956
#        109216
#        146413
#        168231
#        197958
#        230484
#        249945
#        293328
#
# Disc length: 4145 seconds
#
# Revision: 0
# Processed by: cddbd v1.5.2PL0 Copyright (c) Steve Scherf et al.
# Submitted via: ExactAudioCopy v0.99pb5
#
DISCID=9c102f0c
DTITLE=The Hard Swimmin' Fish - The Hard Swimmin' Fish Live
DYEAR=2011
DGENRE=Blues
TTITLE0=Let Me Be Your Little Dog (Live)
TTITLE1=Georgia Women (Live)
TTITLE2=Tell It To Me (Live)
TTITLE3=Crosscut Saw (Live)
TTITLE4=Soul In Mississippi (Live)
TTITLE5=Drop Down Mama (Live)
TTITLE6=Nadine (Live)
TTITLE7=Who'll Sop My Gravy (Live)
TTITLE8=Who's Been Talkin'? (Live)
TTITLE9=How Long? (Live)
TTITLE10=St. James Infirmary (Live)
TTITLE11=Can't Get That Stuff No More (Live)
EXTD=
EXTT0=
EXTT1=
EXTT2=
EXTT3=
EXTT4=
EXTT5=
EXTT6=
EXTT7=
EXTT8=
EXTT9=
EXTT10=
EXTT11=
PLAYORDER=
